<?xml version="1.0" encoding="utf-8"?>
<!-- Generator: Adobe Illustrator 23.0.5, SVG Export Plug-In . SVG Version: 6.00 Build 0)  -->
<svg version="1.1" id="Layer_1" xmlns="http://www.w3.org/2000/svg" xmlns:xlink="http://www.w3.org/1999/xlink" x="0px" y="0px"
	 viewBox="0 0 200 200" style="enable-background:new 0 0 200 200;" xml:space="preserve">
<style type="text/css">
	.st0{display:none;}
	.st1{display:inline;}
	.st2{display:inline;fill:#17B57F;}
	.st3{display:inline;fill:#161D27;}
	.st4{fill:#161D27;}
</style>
<g class="st0">
	<g class="st1">
		<path d="M37.8,117c-0.9,0.9-2.6,0.5-2.9-0.8l-1.9-7.1l-1.9-7.1c-0.3-1.3,0.8-2.5,2.1-2.1l7.1,1.9l7.1,1.9c1.3,0.3,1.7,2,0.8,2.9
			l-1.6,0.9c-3.4,1.8-6.2,4.6-8,8L37.8,117z"/>
		<path d="M29,108.6h-6.6c-6,0-10.9-4.9-10.9-10.9v-6.3c0-6,4.9-10.9,10.9-10.9H29c6,0,10.9,4.9,10.9,10.9v6.3l0,0
			c-2.6,0-4.8-2.1-4.8-4.8v-1.5c0-3.4-2.7-6.1-6.1-6.1h-6.6c-3.4,0-6.1,2.7-6.1,6.1v6.3c0,3.4,2.7,6.1,6.1,6.1h1.8
			C26.9,103.8,29,106,29,108.6L29,108.6z"/>
	</g>
	<g class="st1">
		<path d="M52.1,88.7v-6.6l0,0c1.6,0,3.1,0.9,3.9,2.3l1.9,3.4H58l-0.1-2.7v-3l0,0c1.1,0,2.1,0.9,2.1,2.1v6.7l0,0
			c-1.5,0-2.9-0.8-3.7-2.1l-2-3.5h-0.1l0.1,2.4v3.2l0,0C53,90.9,52.1,90,52.1,88.7z"/>
		<path d="M61.2,90.9v-8.7h6.5V84h-4.8l0.4-0.5v6L62.9,89h4.8v1.8L61.2,90.9L61.2,90.9z M62.9,87.4v-1.7h4.2v1.7H62.9z"/>
		<path d="M68.6,90.9v-8.7h6.5V84h-4.8l0.4-0.5v6L70.3,89h4.8v1.8L68.6,90.9L68.6,90.9z M70.3,87.4v-1.7h4.2v1.7H70.3z"/>
		<path d="M76,90.9v-8.7h3.8c0.9,0,1.6,0.2,2.2,0.6s1.1,0.9,1.4,1.5c0.3,0.7,0.5,1.4,0.5,2.3c0,0.6-0.1,1.2-0.3,1.8
			c-0.2,0.5-0.4,1-0.8,1.4c-0.3,0.4-0.8,0.7-1.3,0.9S80.4,91,79.8,91H76V90.9z M78.1,89.1h1.3c0.3,0,0.6,0,0.9-0.1s0.5-0.2,0.7-0.4
			c0.2-0.2,0.4-0.5,0.5-0.8s0.2-0.8,0.2-1.3c0-0.7-0.1-1.2-0.3-1.5c-0.2-0.4-0.5-0.6-0.8-0.8S79.9,84,79.4,84h-1.3V89.1z"/>
		<path d="M86.3,90.9l2.8-8.7h3.1l2.8,8.7h-2.2l-1.8-6l-0.3-1.1h-0.1l-0.3,1.1l-1.8,6H86.3z M88.9,89.3l0.5-1.6H92l0.5,1.6H88.9z"/>
		<path d="M97.9,90.9v-8.7l0,0c1.2,0,2.1,1,2.1,2.1v5L99.7,89h4.1l0,0c0,1.1-0.9,1.9-1.9,1.9H97.9z"/>
		<path d="M107.9,91.1c-0.7,0-1.3-0.1-1.8-0.3c-0.5-0.2-1-0.5-1.4-0.9s-0.7-0.9-0.9-1.4s-0.3-1.2-0.3-1.9c0-0.7,0.1-1.4,0.3-1.9
			s0.5-1,0.9-1.4s0.9-0.7,1.4-0.9c0.5-0.2,1.1-0.3,1.8-0.3c0.7,0,1.3,0.1,1.8,0.3c0.5,0.2,1,0.5,1.4,0.9s0.7,0.9,0.9,1.4
			c0.2,0.6,0.3,1.2,0.3,1.9c0,0.7-0.1,1.4-0.3,1.9c-0.2,0.6-0.5,1-0.9,1.4s-0.9,0.7-1.4,0.9C109.2,91,108.5,91.1,107.9,91.1z
			 M107.9,89.2c0.4,0,0.8-0.1,1.2-0.3s0.6-0.5,0.8-0.9c0.2-0.4,0.3-0.9,0.3-1.5c0-0.5-0.1-0.9-0.2-1.2c-0.1-0.3-0.3-0.6-0.5-0.8
			c-0.2-0.2-0.4-0.4-0.7-0.5c-0.3-0.1-0.6-0.2-0.9-0.2c-0.4,0-0.8,0.1-1.2,0.3c-0.3,0.2-0.6,0.5-0.8,0.9s-0.3,0.9-0.3,1.5
			c0,0.5,0.1,0.9,0.2,1.2c0.1,0.3,0.3,0.6,0.5,0.8c0.2,0.2,0.4,0.4,0.7,0.5C107.2,89.2,107.5,89.2,107.9,89.2z"/>
		<path d="M112.3,90.9l2.8-8.7h3.1l2.8,8.7h-2.2l-1.8-6l-0.3-1.1h-0.1l-0.3,1.1l-1.8,6H112.3z M114.9,89.3l0.5-1.6h2.6l0.5,1.6
			H114.9z"/>
		<path d="M121.6,90.9v-8.7h2.6l3.2,5.7h0.1l-0.1-2.7v-3h2.1v8.7H127l-3.2-5.6h-0.1l0.1,2.4v3.2H121.6z"/>
		<path d="M63.9,98.4L63.9,98.4c0-1,0.8-1.8,1.8-1.8h5.4l0,0c0,1-0.8,1.8-1.8,1.8H63.9z M66.4,103.2v-4.9h2.2v7.1l0,0
			C67.3,105.3,66.4,104.4,66.4,103.2z"/>
		<path d="M78,105.5c-0.7,0-1.3-0.1-1.8-0.3c-0.5-0.2-1-0.5-1.4-0.9s-0.7-0.9-0.9-1.4s-0.3-1.2-0.3-1.9s0.1-1.4,0.3-1.9
			s0.5-1,0.9-1.4s0.9-0.7,1.4-0.9c0.5-0.2,1.1-0.3,1.8-0.3c0.7,0,1.3,0.1,1.8,0.3c0.5,0.2,1,0.5,1.4,0.9s0.7,0.9,0.9,1.4
			c0.2,0.6,0.3,1.2,0.3,1.9s-0.1,1.4-0.3,1.9c-0.2,0.6-0.5,1-0.9,1.4s-0.9,0.7-1.4,0.9S78.7,105.5,78,105.5z M78,103.6
			c0.4,0,0.8-0.1,1.2-0.3c0.3-0.2,0.6-0.5,0.8-0.9c0.2-0.4,0.3-0.9,0.3-1.5c0-0.5-0.1-0.8-0.2-1.2s-0.3-0.6-0.5-0.8
			c-0.2-0.2-0.4-0.4-0.7-0.5c-0.3-0.1-0.6-0.2-0.9-0.2c-0.4,0-0.8,0.1-1.2,0.3c-0.3,0.2-0.6,0.5-0.8,0.9c-0.2,0.4-0.3,0.9-0.3,1.5
			c0,0.5,0.1,0.9,0.2,1.2c0.1,0.3,0.3,0.6,0.5,0.8c0.2,0.2,0.4,0.4,0.7,0.5C77.4,103.6,77.7,103.6,78,103.6z"/>
		<path d="M86,105.3v-8.7h3.8c0.9,0,1.6,0.2,2.2,0.6s1.1,0.9,1.4,1.5c0.3,0.7,0.5,1.4,0.5,2.3c0,0.6-0.1,1.2-0.3,1.8s-0.4,1-0.8,1.4
			c-0.3,0.4-0.8,0.7-1.3,0.9s-1.1,0.3-1.7,0.3H86V105.3z M88.2,103.5h1.3c0.3,0,0.6,0,0.9-0.1s0.5-0.2,0.7-0.4
			c0.2-0.2,0.4-0.5,0.5-0.8s0.2-0.8,0.2-1.3c0-0.7-0.1-1.2-0.3-1.5c-0.2-0.4-0.5-0.6-0.8-0.8s-0.7-0.2-1.1-0.2h-1.3L88.2,103.5
			L88.2,103.5z"/>
		<path d="M96.6,105.3l2.8-8.7h3.1l2.8,8.7h-2.2l-1.8-6l-0.3-1.1h-0.1l-0.3,1.1l-1.8,6H96.6z M99.2,103.7l0.5-1.6h2.6l0.5,1.6H99.2z
			"/>
		<path d="M109.8,105.3V102l-3.2-5.5h2.4l1.1,2.2l0.7,1.4h0.1l0.7-1.4l1.2-2.2h2.4l-3.3,5.5v3.3H109.8z"/>
	</g>
	<rect x="-81.9" y="117.5" class="st2" width="56.3" height="67.7"/>
	<rect x="-120.9" y="162.5" class="st3" width="56.3" height="67.7"/>
</g>
<g>
	<g>
		<path class="st4" d="M140.3,194.6c-5,5-13.5,2.7-15.3-4.1l-10-37.6l-10.1-37.7c-1.8-6.8,4.4-13,11.2-11.2l37.7,10.1l37.7,10.1
			c6.8,1.8,9.1,10.3,4.1,15.3L187,144c-17.9,9.5-32.6,24.1-42.1,42.1L140.3,194.6z"/>
		<path class="st4" d="M93.9,150.5H59.2c-31.7,0-57.4-25.7-57.4-57.4v-33c0-31.7,25.7-57.4,57.4-57.4h34.7
			c31.7,0,57.4,25.7,57.4,57.4v33l0,0c-13.9,0-25.2-11.3-25.2-25.2V60c0-17.8-14.4-32.2-32.2-32.2H59.2C41.4,27.8,27,42.3,27,60.1
			v33c0,17.8,14.4,32.2,32.2,32.2h9.6C82.7,125.3,93.9,136.6,93.9,150.5L93.9,150.5z"/>
	</g>
</g>
</svg>
